<svg xmlns="http://www.w3.org/2000/svg" viewBox="0 0 64 64" fill="#000" fill-rule="evenodd">
  <!-- Drawn here rather than licensed: neither the doodle set nor the pack has
       a camera, and the Take Photo option cannot be the same picture as Photo
       Library. Solid fill on transparent with an even-odd lens, so it masks to
       currentColor exactly like the rest. -->
  <path d="M24.6 8h14.8a4 4 0 0 1 3.38 1.86L45.9 14H54a6 6 0 0 1 6 6v28a6 6 0 0 1-6 6H10a6 6 0 0 1-6-6V20a6 6 0 0 1 6-6h8.1l3.12-4.14A4 4 0 0 1 24.6 8Zm7.4 12.8c-7.07 0-12.8 5.73-12.8 12.8S24.93 46.4 32 46.4 44.8 40.67 44.8 33.6 39.07 20.8 32 20.8Zm0 6.4a6.4 6.4 0 1 1 0 12.8 6.4 6.4 0 0 1 0-12.8ZM50.5 19a2.9 2.9 0 1 0 0 5.8 2.9 2.9 0 0 0 0-5.8Z"/>
</svg>
